<!-- icon666.com - MILLIONS vector ICONS FREE --><svg id="Layer_1" enable-background="new 0 0 512 512" viewBox="0 0 512 512" xmlns="http://www.w3.org/2000/svg"><g clip-rule="evenodd" fill-rule="evenodd"><path d="m256 0c-141.2 0-256 114.8-256 256s114.8 256 256 256 256-114.8 256-256-114.8-256-256-256z" fill="#4bae4f" style="fill: rgb(225, 86, 86);"></path><path d="m379.5 349.7c6.4 6.1 6.7 16.2.6 22.6s-16.2 6.7-22.6.6l-102.5-96.7-96.8 102.5c-3.1 3.3-7.4 5-11.6 5-3.9 0-7.9-1.4-11-4.4-6.4-6.1-6.7-16.2-.7-22.6l107.7-114.1c2.9-3.1 6.9-4.9 11.2-5 4.2-.1 8.4 1.4 11.4 4.4zm-247-79.6c-6.4-6.1-6.7-16.2-.6-22.6l107.8-114.1c6.1-6.4 16.2-6.7 22.6-.6l114.1 107.8c6.4 6.1 6.7 16.2.6 22.6s-16.2 6.7-22.6.6l-102.5-96.8-96.8 102.5c-3.1 3.3-7.4 5-11.6 5-4-.2-7.9-1.5-11-4.4z" fill="#fff"></path></g></svg>